<?xml version="1.0" encoding="UTF-8" standalone="no"?>
<svg
   version="1.2"
   viewBox="0 0 400 600"
   width="400"
   height="600"
   id="svg1"
   sodipodi:docname="noneTattoo1.svg"
   inkscape:version="1.4.2 (f4327f4, 2025-05-13)"
   xmlns:inkscape="http://www.inkscape.org/namespaces/inkscape"
   xmlns:sodipodi="http://sodipodi.sourceforge.net/DTD/sodipodi-0.dtd"
   xmlns="http://www.w3.org/2000/svg"
   xmlns:svg="http://www.w3.org/2000/svg"
   xmlns:rdf="http://www.w3.org/1999/02/22-rdf-syntax-ns#"
   xmlns:cc="http://creativecommons.org/ns#"
   xmlns:dc="http://purl.org/dc/elements/1.1/">
  <defs
     id="defs1" />
  <sodipodi:namedview
     id="namedview1"
     pagecolor="#ffffff"
     bordercolor="#000000"
     borderopacity="0.25"
     inkscape:showpageshadow="2"
     inkscape:pageopacity="0.0"
     inkscape:pagecheckerboard="0"
     inkscape:deskcolor="#d1d1d1"
     inkscape:zoom="2.2485996"
     inkscape:cx="200.34692"
     inkscape:cy="491.8617"
     inkscape:window-width="1440"
     inkscape:window-height="830"
     inkscape:window-x="-6"
     inkscape:window-y="-6"
     inkscape:window-maximized="1"
     inkscape:current-layer="g1" />
  <title
     id="title1">body3-svg</title>
  <g
     id="g1"
     style="fill:none">
    <path
       sodipodi:type="star"
       style="fill:#22241c;fill-opacity:1"
       id="path22"
       inkscape:flatsided="false"
       sodipodi:sides="5"
       sodipodi:cx="344.65408"
       sodipodi:cy="547.1698"
       sodipodi:r1="12.950478"
       sodipodi:r2="6.4752393"
       sodipodi:arg1="-1.0636978"
       sodipodi:arg2="-0.43537929"
       inkscape:rounded="0"
       inkscape:randomized="0"
       d="m 350.94339,535.84905 -0.41814,8.58979 6.83901,5.21414 -8.29859,2.25672 -2.84557,8.11554 -4.71067,-7.19506 -8.59768,-0.19846 5.38724,-6.70351 -2.46808,-8.2382 8.04017,3.05207 z"
       inkscape:transform-center-x="-0.47496911"
       inkscape:transform-center-y="0.7617544"
       transform="matrix(0.98149435,0,0,0.99271188,6.1607475,3.9053336)" />
    <path
       sodipodi:type="star"
       style="fill:#22241c;fill-opacity:1"
       id="path23"
       inkscape:flatsided="false"
       sodipodi:sides="5"
       sodipodi:cx="362.26416"
       sodipodi:cy="565.40881"
       sodipodi:r1="14.258848"
       sodipodi:r2="7.1294241"
       sodipodi:arg1="0.72297935"
       sodipodi:arg2="1.3512979"
       inkscape:rounded="0"
       inkscape:randomized="0"
       d="m 372.95598,574.84278 -9.13946,-2.4756 -7.22064,6.12542 -0.46981,-9.45715 -8.05692,-4.97438 8.8491,-3.36924 2.24119,-9.19975 5.93886,7.37484 9.44205,-0.71138 -5.17868,7.92714 z"
       inkscape:transform-center-x="0.86984747"
       inkscape:transform-center-y="-0.37019302"
       transform="matrix(0.90664577,0,0,0.88887189,32.493727,61.286272)" />
    <path
       sodipodi:type="star"
       style="fill:#22241c;fill-opacity:1"
       id="path24"
       inkscape:flatsided="false"
       sodipodi:sides="5"
       sodipodi:cx="335.22012"
       sodipodi:cy="570.44025"
       sodipodi:r1="12.404455"
       sodipodi:r2="6.2022271"
       sodipodi:arg1="2.6098686"
       sodipodi:arg2="3.2381871"
       inkscape:rounded="0"
       inkscape:randomized="0"
       d="m 324.5283,576.72955 4.51851,-6.88747 -3.11213,-7.62686 7.94668,2.16901 6.29187,-5.31664 0.3928,8.228 7.00072,4.341 -7.70391,2.91617 -1.96518,7.99952 -5.15409,-6.42571 z"
       inkscape:transform-center-x="-0.86192485"
       inkscape:transform-center-y="0.37778131"
       transform="matrix(1.0417365,0,0,1.0219425,-13.544686,-12.26736)" />
    <path
       sodipodi:type="star"
       style="fill:#22241c;fill-opacity:1"
       id="path25"
       inkscape:flatsided="false"
       sodipodi:sides="5"
       sodipodi:cx="357.86163"
       sodipodi:cy="587.42139"
       sodipodi:r1="13.341637"
       sodipodi:r2="6.6708183"
       sodipodi:arg1="0.14189705"
       sodipodi:arg2="0.77021559"
       inkscape:rounded="0"
       inkscape:randomized="0"
       d="m 371.06918,589.30818 -8.4195,2.75803 -2.50114,8.49935 -5.22481,-7.15514 -8.85625,0.24772 5.19038,-7.18015 -2.97233,-8.34625 8.43265,2.71756 7.01926,-5.40599 0.0213,8.8597 z"
       inkscape:transform-center-x="-0.67837848"
       inkscape:transform-center-y="0.55700703"
       transform="matrix(0.95993454,0,0,0.95532859,13.865351,25.705866)" />
    <path
       sodipodi:type="star"
       style="fill:#22241c;fill-opacity:1"
       id="path22-5"
       inkscape:flatsided="false"
       sodipodi:sides="5"
       sodipodi:cx="344.65408"
       sodipodi:cy="547.1698"
       sodipodi:r1="12.950478"
       sodipodi:r2="6.4752393"
       sodipodi:arg1="-1.0636978"
       sodipodi:arg2="-0.43537929"
       inkscape:rounded="0"
       inkscape:randomized="0"
       d="m 350.94339,535.84905 -0.41814,8.58979 6.83901,5.21414 -8.29859,2.25672 -2.84557,8.11554 -4.71067,-7.19506 -8.59768,-0.19846 5.38724,-6.70351 -2.46808,-8.2382 8.04017,3.05207 z"
       inkscape:transform-center-x="0.47497159"
       inkscape:transform-center-y="0.7617544"
       transform="matrix(-0.98149435,0,0,0.99271188,388.47384,3.3141452)" />
    <path
       sodipodi:type="star"
       style="fill:#22241c;fill-opacity:1"
       id="path23-4"
       inkscape:flatsided="false"
       sodipodi:sides="5"
       sodipodi:cx="362.26416"
       sodipodi:cy="565.40881"
       sodipodi:r1="14.258848"
       sodipodi:r2="7.1294241"
       sodipodi:arg1="0.72297935"
       sodipodi:arg2="1.3512979"
       inkscape:rounded="0"
       inkscape:randomized="0"
       d="m 372.95598,574.84278 -9.13946,-2.4756 -7.22064,6.12542 -0.46981,-9.45715 -8.05692,-4.97438 8.8491,-3.36924 2.24119,-9.19975 5.93886,7.37484 9.44205,-0.71138 -5.17868,7.92714 z"
       inkscape:transform-center-x="-0.86984499"
       inkscape:transform-center-y="-0.37019302"
       transform="matrix(-0.90664577,0,0,0.88887189,362.14086,60.695084)" />
    <path
       sodipodi:type="star"
       style="fill:#22241c;fill-opacity:1"
       id="path24-2"
       inkscape:flatsided="false"
       sodipodi:sides="5"
       sodipodi:cx="335.22012"
       sodipodi:cy="570.44025"
       sodipodi:r1="12.404455"
       sodipodi:r2="6.2022271"
       sodipodi:arg1="2.6098686"
       sodipodi:arg2="3.2381871"
       inkscape:rounded="0"
       inkscape:randomized="0"
       d="m 324.5283,576.72955 4.51851,-6.88747 -3.11213,-7.62686 7.94668,2.16901 6.29187,-5.31664 0.3928,8.228 7.00072,4.341 -7.70391,2.91617 -1.96518,7.99952 -5.15409,-6.42571 z"
       inkscape:transform-center-x="0.86192733"
       inkscape:transform-center-y="0.37778131"
       transform="matrix(-1.0417365,0,0,1.0219425,408.17928,-12.858548)" />
    <path
       sodipodi:type="star"
       style="fill:#22241c;fill-opacity:1"
       id="path25-0"
       inkscape:flatsided="false"
       sodipodi:sides="5"
       sodipodi:cx="357.86163"
       sodipodi:cy="587.42139"
       sodipodi:r1="13.341637"
       sodipodi:r2="6.6708183"
       sodipodi:arg1="0.14189705"
       sodipodi:arg2="0.77021559"
       inkscape:rounded="0"
       inkscape:randomized="0"
       d="m 371.06918,589.30818 -8.4195,2.75803 -2.50114,8.49935 -5.22481,-7.15514 -8.85625,0.24772 5.19038,-7.18015 -2.97233,-8.34625 8.43265,2.71756 7.01926,-5.40599 0.0213,8.8597 z"
       inkscape:transform-center-x="0.67838096"
       inkscape:transform-center-y="0.55700703"
       transform="matrix(-0.95993454,0,0,0.95532859,380.76924,25.114678)" />
  </g>
  <metadata
     id="metadata25">
    <rdf:RDF>
      <cc:Work
         rdf:about="">
        <dc:title>body3-svg</dc:title>
      </cc:Work>
    </rdf:RDF>
  </metadata>
</svg>
