<?xml version="1.0" encoding="UTF-8" standalone="no"?>
<svg
   version="1.2"
   viewBox="0 0 400 600"
   width="400"
   height="600"
   id="svg1"
   sodipodi:docname="tattoo1.svg"
   inkscape:version="1.4.2 (f4327f4, 2025-05-13)"
   xmlns:inkscape="http://www.inkscape.org/namespaces/inkscape"
   xmlns:sodipodi="http://sodipodi.sourceforge.net/DTD/sodipodi-0.dtd"
   xmlns:xlink="http://www.w3.org/1999/xlink"
   xmlns="http://www.w3.org/2000/svg"
   xmlns:svg="http://www.w3.org/2000/svg"
   xmlns:rdf="http://www.w3.org/1999/02/22-rdf-syntax-ns#"
   xmlns:cc="http://creativecommons.org/ns#"
   xmlns:dc="http://purl.org/dc/elements/1.1/">
  <defs
     id="defs1">
    <pattern
       inkscape:collect="always"
       xlink:href="#pattern7-7"
       preserveAspectRatio="none"
       id="pattern15"
       patternTransform="matrix(-0.26084132,-0.2522437,2.0139815,-2.0826273,319.36698,475.90823)"
       x="0"
       y="0"
       width="40.6" />
    <pattern
       patternUnits="userSpaceOnUse"
       width="29"
       height="40"
       patternTransform="translate(190,350)"
       preserveAspectRatio="xMidYMid"
       id="pattern7-7"
       style="fill:#000000"
       inkscape:label="Abstract 3"
       inkscape:collect="always"
       inkscape:isstock="true">
      <path
         style="color:#000000;-inkscape-stroke:none;paint-order:stroke markers fill"
         d="m 0,0 v 10 c 4.3114,0 6.57159,0.56944 7.85742,1.13672 1.28583,0.56728 1.85743,1.14844 3.10742,2.39844 1.25,1.24999 3.17841,3.16884 6.14258,4.47656 C 20.07159,19.31944 23.81141,20 29,20 V 10 C 24.6886,10 22.42841,9.43056 21.14258,8.86328 19.85675,8.296 19.28515,7.71484 18.03516,6.46484 16.78516,5.21485 14.85675,3.296 11.89258,1.98828 8.92841,0.68056 5.18859,0 0,0 Z m 29,20 c -5.18859,0 -8.92841,0.68056 -11.89258,1.98828 -2.96417,1.30772 -4.89258,3.22657 -6.14258,4.47656 -1.25,1.25 -1.82159,1.83116 -3.10742,2.39844 C 6.57159,29.43056 4.3114,30 0,30 v 10 c 5.18859,0 8.92841,-0.68056 11.89258,-1.98828 2.96417,-1.30772 4.89258,-3.22657 6.14258,-4.47656 1.24999,-1.25 1.82159,-1.83116 3.10742,-2.39844 C 22.42841,30.56944 24.6886,30 29,30 Z"
         id="path4-7" />
    </pattern>
    <filter
       inkscape:collect="always"
       style="color-interpolation-filters:sRGB"
       id="filter15"
       x="-0.048952586"
       y="-0.042530516"
       width="1.0979052"
       height="1.085061">
      <feGaussianBlur
         inkscape:collect="always"
         stdDeviation="1.3583951"
         id="feGaussianBlur15" />
    </filter>
  </defs>
  <sodipodi:namedview
     id="namedview1"
     pagecolor="#ffffff"
     bordercolor="#000000"
     borderopacity="0.25"
     inkscape:showpageshadow="2"
     inkscape:pageopacity="0.0"
     inkscape:pagecheckerboard="0"
     inkscape:deskcolor="#d1d1d1"
     inkscape:zoom="1.9533333"
     inkscape:cx="164.59044"
     inkscape:cy="484.30034"
     inkscape:window-width="1440"
     inkscape:window-height="830"
     inkscape:window-x="-6"
     inkscape:window-y="-6"
     inkscape:window-maximized="1"
     inkscape:current-layer="g1" />
  <title
     id="title1">body3-svg</title>
  <g
     id="g1"
     style="fill:#000000;fill-opacity:1">
    <path
       style="display:inline;opacity:1;mix-blend-mode:normal;fill:url(#pattern15);fill-opacity:1;stroke-width:1.125;stroke-dasharray:none;filter:url(#filter15)"
       d="m 325.16301,526.20806 -0.48408,76.65433 66.59808,-0.29426 -0.67275,-39.13424 -28.82401,-31.41462 z"
       id="path2"
       inkscape:transform-center-x="-4.7625395"
       inkscape:transform-center-y="0.78335187"
       sodipodi:nodetypes="cccccc" />
    <use
       x="0"
       y="0"
       xlink:href="#path2"
       inkscape:transform-center-x="4.7625405"
       inkscape:transform-center-y="0.78335187"
       id="use15"
       transform="matrix(-1,0,0,1,403.35919,-1.5358361)" />
  </g>
  <metadata
     id="metadata15">
    <rdf:RDF>
      <cc:Work
         rdf:about="">
        <dc:title>body3-svg</dc:title>
      </cc:Work>
    </rdf:RDF>
  </metadata>
</svg>
